<svg width="113" height="40" viewBox="0 0 113 40" fill="none" xmlns="http://www.w3.org/2000/svg">
<path d="M0 7.0547H5.18269L5.01276 12.0958H5.0694C5.83406 9.17875 6.71201 6.7998 10.8468 6.7998C14.1037 6.7998 16.1994 8.47073 16.5676 11.2178H16.5959C17.2756 8.47073 19.1448 6.7998 22.4017 6.7998C26.0834 6.7998 28.1791 9.1221 28.1791 13.087V23.9905H22.9681V14.3048C22.9681 12.3223 21.9485 11.1046 20.1643 11.1046C18.3801 11.1046 16.6809 12.6905 16.6809 15.8058V23.9905H11.4699V14.3048C11.4699 12.3223 10.4503 11.1046 8.66613 11.1046C6.88193 11.1046 5.18269 12.7188 5.18269 15.8907V23.9905H0V7.0547Z" fill="white"/>
<path d="M30.3047 15.5509C30.3047 10.0567 33.9297 6.7998 39.5089 6.7998C45.0881 6.7998 48.7131 10.0567 48.7131 15.5509C48.7131 21.0451 45.0881 24.2737 39.5089 24.2737C33.9297 24.2737 30.3047 21.0451 30.3047 15.5509ZM43.5305 15.5509C43.5305 12.5489 42.0578 10.7647 39.5089 10.7647C36.96 10.7647 35.5157 12.5489 35.5157 15.5509C35.5157 18.5529 36.9884 20.2805 39.5089 20.2805C42.0295 20.2805 43.5305 18.5529 43.5305 15.5509Z" fill="white"/>
<path d="M56.1593 20.4788H56.1309C56.1593 21.47 56.2159 23.1692 56.3009 23.9905H51.0898V0.257812H56.3009V7.33798C56.3009 8.13096 56.2159 10.5099 56.1876 11.3312H56.2442C56.8956 9.09386 59.0763 6.79988 62.0783 6.79988C66.8928 6.79988 69.7532 9.91516 69.7532 15.1828C69.7532 20.9036 66.8645 24.2738 62.05 24.2738C58.963 24.2738 56.7823 22.6312 56.1593 20.4788ZM64.5422 15.3527C64.5422 12.4923 63.0978 10.7648 60.6622 10.7648C58.2267 10.7648 56.3009 12.5207 56.3009 15.4377V16.2024C56.3009 18.7795 57.9434 20.2805 60.7189 20.2805C63.4943 20.2805 64.5422 18.468 64.5422 15.3527Z" fill="white"/>
<path d="M72.1895 7.05469H77.3721V23.9905H72.1895V7.05469Z" fill="white"/>
<path d="M80.2031 0.257812H85.3858V23.9905H80.2031V0.257812Z" fill="white"/>
<path d="M88.1348 0.257812H93.3458V23.9905H88.1348V0.257812Z" fill="white"/>
<path d="M95.6958 18.298H100.369C100.369 19.884 101.162 20.9035 104.135 20.9035C107.109 20.9035 107.789 20.1105 107.789 18.8927C107.789 18.2697 107.477 17.7882 106.599 17.59C105.721 17.3917 104.334 17.2501 102.663 17.1085C100.227 16.9103 98.3296 16.5138 97.3101 15.8058C96.7998 15.419 96.3877 14.9175 96.1073 14.3418C95.8268 13.7661 95.6858 13.1325 95.6958 12.4923C95.6958 8.81058 99.4625 6.7998 104.164 6.7998C109.715 6.7998 112.235 8.92386 112.235 12.8604H107.647C107.619 11.0762 106.798 10.1417 104.22 10.1417C101.643 10.1417 100.878 10.9346 100.878 12.0958C100.878 13.2569 101.162 13.3702 102.125 13.5968C103.088 13.8233 104.475 13.9649 106.288 14.1349C108.1 14.3048 109.856 14.5314 111.131 15.2677C111.708 15.6112 112.186 16.101 112.514 16.6878C112.842 17.2745 113.01 17.9373 113 18.6095C113 22.1779 109.941 24.2737 104.164 24.2737C98.3863 24.2737 95.6958 21.7248 95.6958 18.298Z" fill="white"/>
<path d="M74.0576 36.0831C74.0576 36.4796 74.086 36.9894 74.086 37.2726H72.8398V29.4844H74.086V32.9678C74.3125 32.1465 75.0772 31.6367 76.1817 31.6367C77.7676 31.6367 78.7306 32.6846 78.7306 34.4122C78.7306 36.1397 77.7676 37.3575 76.1817 37.3575C75.0489 37.3575 74.2842 36.8761 74.0576 36.0831ZM77.4844 34.4405C77.4844 33.336 76.8897 32.6846 75.8985 32.6846C74.9073 32.6846 74.086 33.3643 74.086 34.4971V34.7803C74.086 35.7432 74.794 36.338 75.8702 36.338C76.9463 36.338 77.4844 35.6016 77.4844 34.4405Z" fill="white"/>
<path d="M79.8076 39.4825V38.4913C80.0292 38.5548 80.2572 38.5928 80.4873 38.6046C81.0821 38.6046 81.3369 38.2931 81.7617 37.2735H81.4502L79.043 31.7227H80.5156L82.2715 35.9991H82.2998L83.8575 31.7227H85.0753L82.9796 37.3868C82.3565 39.0577 81.8184 39.6241 80.7139 39.6241C80.4059 39.6292 80.0994 39.5813 79.8076 39.4825Z" fill="white"/>
<path d="M90.4004 30.9854H88.1348V29.8809H94.0538V30.9854H91.7598V37.2726H90.4004V30.9854Z" fill="white"/>
<path d="M93.9121 34.4981C93.9121 32.7422 95.0449 31.6377 96.8008 31.6377C98.5567 31.6377 99.7178 32.7422 99.7178 34.4981C99.7178 36.254 98.585 37.3585 96.8008 37.3585C95.0166 37.3585 93.9121 36.2823 93.9121 34.4981ZM98.4434 34.4981C98.4434 33.3653 97.8204 32.6856 96.8008 32.6856C95.7813 32.6856 95.1582 33.3653 95.1582 34.4981C95.1582 35.6309 95.7813 36.3389 96.8008 36.3389C97.8204 36.3389 98.4434 35.6309 98.4434 34.4981Z" fill="white"/>
<path d="M100.793 31.7227H102.039L101.982 33.3086H102.011C102.266 32.3174 102.832 31.6377 103.993 31.6377C105.154 31.6377 105.834 32.4307 105.834 33.8184C105.833 34.159 105.814 34.4993 105.777 34.8379H104.645C104.68 34.5845 104.699 34.3291 104.701 34.0733C104.701 33.167 104.333 32.7139 103.597 32.7139C102.634 32.7139 102.039 33.5352 102.039 34.8379V37.2735H100.793V31.7227Z" fill="white"/>
<path d="M106.74 34.4981C106.74 32.7422 107.873 31.6377 109.657 31.6377C111.441 31.6377 112.546 32.7422 112.546 34.4981C112.546 36.254 111.413 37.3585 109.657 37.3585C107.901 37.3585 106.74 36.2823 106.74 34.4981ZM111.3 34.4981C111.3 33.3653 110.677 32.6856 109.657 32.6856C108.638 32.6856 108.015 33.3653 108.015 34.4981C108.015 35.6309 108.638 36.3389 109.657 36.3389C110.677 36.3389 111.3 35.6309 111.3 34.4981Z" fill="white"/>
</svg>
